<?xml version="1.0" encoding="utf-8"?>
<!-- Generator: Adobe Illustrator 21.0.0, SVG Export Plug-In . SVG Version: 6.00 Build 0)  -->
<svg version="1.1" id="Camada_1" xmlns="http://www.w3.org/2000/svg" xmlns:xlink="http://www.w3.org/1999/xlink" x="0px" y="0px"
	 viewBox="0 0 100 125" style="enable-background:new 0 0 100 125;" xml:space="preserve">
<g>
	<path d="M74.7,51h1.9c1.8,0,3.4-1.6,3.4-3.3V44c0-1.8-1.7-3-3.4-3h-3.9c0-0.1,0-0.2-0.1-0.3c-0.3-1.1-0.8-2.5-1.7-4.1
		c-2.1-3.8-5.5-5.6-9.7-5.6H41.1c-4.2,0-7.5,1.9-9.7,5.7c-1.6,2.8-1.9,5.3-2,5.4L29.3,43h7.7l0.2-0.6c0,0,0.3-1.3,1-2.4
		c0.5-0.9,1.3-2.1,2.3-2.1h21.1c1,0,1.8,1.3,2.3,2.2c0.6,1.1,1,2.2,1,2.2l0.2,0.7h7.7H73h3.6c0.7,0,1.4,0.3,1.4,1v3.7
		c0,0.7-0.8,1.3-1.4,1.3h-1.9c-1.8,0-3.2,1.2-3.2,3c0,1.8,1.4,3,3.2,3h1.9c0.7,0,1.2,0.8,1.2,1.5S77.2,58,76.6,58H75v2h1.6
		c1.8,0,3.2-1.7,3.2-3.5c0-1.8-1.4-3.5-3.2-3.5h-1.9c-0.7,0-1.2-0.3-1.2-1S74,51,74.7,51z M66.7,41c-0.2,0-0.5-1.3-0.9-2
		c-1.4-2.4-3-3-4.1-3H40.6c-1.1,0-2.7,0.6-4.1,3c-0.4,0.7-0.7,2-0.9,2h-3.9c0.2-1,0.7-2.1,1.5-3.5c1.8-3.2,4.5-4.5,7.9-4.5h20.1
		c3.5,0,6.1,1.3,7.9,4.5c0.8,1.4,1.2,2.5,1.5,3.5H66.7z"/>
	<rect x="29" y="45" width="8" height="2"/>
	<rect x="65" y="45" width="8" height="2"/>
	<path d="M70.1,55.2c-0.7-2.9-3.7-5.2-6.7-5.2h-1.7c0-0.1,0-0.1,0-0.2c-0.5-5.3-5-9.4-10.4-9.4c-5.4,0-9.9,4.1-10.4,9.4
		c0,0.1,0,0.1,0,0.2c0,0,0,0,0,0c0,0.1,0,0.2,0,0.3c0-0.2,0-0.3,0-0.3c0,0,0,0,0,0h-1.8c-3,0-6,2.3-6.7,5.2L30.8,62
		c-0.4,1.5-0.1,3.1,0.8,4.2c0.9,1.1,2.2,1.8,3.7,1.8h31.8c1.5,0,2.9-0.8,3.7-1.8s1.2-2.7,0.8-4.2L70.1,55.2z M62,50.9
		c0,0.1,0,0.1,0,0.1c0,0.1-0.1,0.3-0.1,0.5C61.9,51.3,62,51.1,62,50.9z M61.8,50.6c0,0.1,0,0.2,0,0.3C61.8,50.7,61.8,50.7,61.8,50.6
		z M51.3,42.4c4.6,0,8.4,3.8,8.4,8.4s-3.8,8.4-8.4,8.4s-8.4-3.8-8.4-8.4S46.6,42.4,51.3,42.4z M69.8,64c-0.1,0.3-0.2,0.7-0.4,0.9
		c-0.5,0.6-1.3,1.1-2.2,1.1H35.4c-0.9,0-1.7-0.5-2.2-1.1c-0.2-0.3-0.3-0.6-0.4-0.9c-0.1-0.3-0.1-0.5-0.1-0.8c0-0.2,0-0.4,0.1-0.7
		l1.6-6.8c0.5-2,2.6-3.7,4.7-3.7h1.8c0,0,0-0.3,0.1-0.7c0,0.2,0,0.3,0,0.5c0.5,5.3,4.9,9.4,10.3,9.4c5.4,0,9.9-4.1,10.5-9.3h1.6
		c2.1,0,4.2,1.6,4.7,3.7l1.6,6.8c0.1,0.2,0.1,0.5,0.1,0.7C69.9,63.5,69.8,63.7,69.8,64z"/>
	<circle cx="51.3" cy="45.1" r="1.3"/>
	<circle cx="51.3" cy="56.6" r="1.3"/>
	<circle cx="57" cy="50.9" r="1.3"/>
	<circle cx="45.5" cy="50.9" r="1.3"/>
	<circle cx="55.3" cy="54.9" r="1.3"/>
	<circle cx="47.2" cy="46.8" r="1.3"/>
	<circle cx="47.2" cy="54.9" r="1.3"/>
	<circle cx="55.3" cy="46.8" r="1.3"/>
</g>
</svg>
